<?xml version="1.0" encoding="UTF-8" standalone="no"?>
<!DOCTYPE svg PUBLIC "-//W3C//DTD SVG 1.1//EN"
 "http://www.w3.org/Graphics/SVG/1.1/DTD/svg11.dtd">
<!-- Generated by graphviz version 13.0.1 (20250615.1724)
 -->
<!-- Title: G_Report8 Pages: 1 -->
<svg width="432pt" height="360pt"
 viewBox="0.00 0.00 432.00 360.00" xmlns="http://www.w3.org/2000/svg" xmlns:xlink="http://www.w3.org/1999/xlink">
<g id="graph0" class="graph" transform="scale(1 1) rotate(0) translate(4 356.4)">
<title>G_Report8</title>
<polygon fill="white" stroke="none" points="-4,4 -4,-356.4 428.17,-356.4 428.17,4 -4,4"/>
<!-- Fact_Borrower_Demographics -->
<g id="node1" class="node">
<title>Fact_Borrower_Demographics</title>
<polygon fill="none" stroke="black" points="90.04,-0.5 90.04,-99.7 279.43,-99.7 279.43,-0.5 90.04,-0.5"/>
<text xml:space="preserve" text-anchor="middle" x="184.74" y="-83.1" font-family="Times,serif" font-size="14.00">Fact_Borrower_Demographics</text>
<polyline fill="none" stroke="black" points="90.04,-74.9 279.43,-74.9"/>
<text xml:space="preserve" text-anchor="middle" x="184.74" y="-58.3" font-family="Times,serif" font-size="14.00">Loan_Count</text>
<polyline fill="none" stroke="black" points="90.04,-50.1 279.43,-50.1"/>
<text xml:space="preserve" text-anchor="middle" x="184.74" y="-33.5" font-family="Times,serif" font-size="14.00">Lender_Count_Sum</text>
<polyline fill="none" stroke="black" points="90.04,-25.3 279.43,-25.3"/>
<text xml:space="preserve" text-anchor="middle" x="184.74" y="-8.7" font-family="Times,serif" font-size="14.00">Funded_Amount_Sum</text>
</g>
<!-- Dim_Time -->
<g id="node2" class="node">
<title>Dim_Time</title>
<polygon fill="none" stroke="black" points="0,-153.5 0,-351.9 103.47,-351.9 103.47,-153.5 0,-153.5"/>
<text xml:space="preserve" text-anchor="middle" x="51.74" y="-335.3" font-family="Times,serif" font-size="14.00">Dim_Time</text>
<polyline fill="none" stroke="black" points="0,-327.1 103.47,-327.1"/>
<text xml:space="preserve" text-anchor="middle" x="51.74" y="-310.5" font-family="Times,serif" font-size="14.00">Date_Key (PK)</text>
<polyline fill="none" stroke="black" points="0,-302.3 103.47,-302.3"/>
<text xml:space="preserve" text-anchor="middle" x="51.74" y="-285.7" font-family="Times,serif" font-size="14.00">Full_Date</text>
<polyline fill="none" stroke="black" points="0,-277.5 103.47,-277.5"/>
<text xml:space="preserve" text-anchor="middle" x="51.74" y="-260.9" font-family="Times,serif" font-size="14.00">Year</text>
<polyline fill="none" stroke="black" points="0,-252.7 103.47,-252.7"/>
<text xml:space="preserve" text-anchor="middle" x="51.74" y="-236.1" font-family="Times,serif" font-size="14.00">Quarter</text>
<polyline fill="none" stroke="black" points="0,-227.9 103.47,-227.9"/>
<text xml:space="preserve" text-anchor="middle" x="51.74" y="-211.3" font-family="Times,serif" font-size="14.00">Month</text>
<polyline fill="none" stroke="black" points="0,-203.1 103.47,-203.1"/>
<text xml:space="preserve" text-anchor="middle" x="51.74" y="-186.5" font-family="Times,serif" font-size="14.00">Day_of_Week</text>
<polyline fill="none" stroke="black" points="0,-178.3 103.47,-178.3"/>
<text xml:space="preserve" text-anchor="middle" x="51.74" y="-161.7" font-family="Times,serif" font-size="14.00">Week_of_Year</text>
</g>
<!-- Dim_Time&#45;&gt;Fact_Borrower_Demographics -->
<g id="edge1" class="edge">
<title>Dim_Time&#45;&gt;Fact_Borrower_Demographics</title>
<path fill="none" stroke="black" d="M74.42,-153.1C79.52,-140.75 85.72,-128.77 93.26,-118.2 95.69,-114.79 98.35,-111.49 101.18,-108.3"/>
<polygon fill="black" stroke="black" points="103.6,-110.83 107.99,-101.19 98.54,-105.99 103.6,-110.83"/>
<text xml:space="preserve" text-anchor="middle" x="137" y="-122.4" font-family="Times,serif" font-size="14.00">Date_Key (FK)</text>
</g>
<!-- Dim_Location -->
<g id="node3" class="node">
<title>Dim_Location</title>
<polygon fill="none" stroke="black" points="121.33,-153.5 121.33,-351.9 248.14,-351.9 248.14,-153.5 121.33,-153.5"/>
<text xml:space="preserve" text-anchor="middle" x="184.74" y="-335.3" font-family="Times,serif" font-size="14.00">Dim_Location</text>
<polyline fill="none" stroke="black" points="121.33,-327.1 248.14,-327.1"/>
<text xml:space="preserve" text-anchor="middle" x="184.74" y="-310.5" font-family="Times,serif" font-size="14.00">Location_Key (PK)</text>
<polyline fill="none" stroke="black" points="121.33,-302.3 248.14,-302.3"/>
<text xml:space="preserve" text-anchor="middle" x="184.74" y="-285.7" font-family="Times,serif" font-size="14.00">Country_Code</text>
<polyline fill="none" stroke="black" points="121.33,-277.5 248.14,-277.5"/>
<text xml:space="preserve" text-anchor="middle" x="184.74" y="-260.9" font-family="Times,serif" font-size="14.00">Country_Name</text>
<polyline fill="none" stroke="black" points="121.33,-252.7 248.14,-252.7"/>
<text xml:space="preserve" text-anchor="middle" x="184.74" y="-236.1" font-family="Times,serif" font-size="14.00">Region_Name</text>
<polyline fill="none" stroke="black" points="121.33,-227.9 248.14,-227.9"/>
<text xml:space="preserve" text-anchor="middle" x="184.74" y="-211.3" font-family="Times,serif" font-size="14.00">World_Region</text>
<polyline fill="none" stroke="black" points="121.33,-203.1 248.14,-203.1"/>
<text xml:space="preserve" text-anchor="middle" x="184.74" y="-186.5" font-family="Times,serif" font-size="14.00">Latitude</text>
<polyline fill="none" stroke="black" points="121.33,-178.3 248.14,-178.3"/>
<text xml:space="preserve" text-anchor="middle" x="184.74" y="-161.7" font-family="Times,serif" font-size="14.00">Longitude</text>
</g>
<!-- Dim_Location&#45;&gt;Fact_Borrower_Demographics -->
<g id="edge2" class="edge">
<title>Dim_Location&#45;&gt;Fact_Borrower_Demographics</title>
<path fill="none" stroke="black" d="M184.74,-153.16C184.74,-138.91 184.74,-124.61 184.74,-111.41"/>
<polygon fill="black" stroke="black" points="188.24,-111.64 184.74,-101.64 181.24,-111.64 188.24,-111.64"/>
<text xml:space="preserve" text-anchor="middle" x="240.14" y="-122.4" font-family="Times,serif" font-size="14.00">Location_Key (FK)</text>
</g>
<!-- Dim_Borrower -->
<g id="node4" class="node">
<title>Dim_Borrower</title>
<polygon fill="none" stroke="black" points="266.39,-190.7 266.39,-314.7 397.08,-314.7 397.08,-190.7 266.39,-190.7"/>
<text xml:space="preserve" text-anchor="middle" x="331.74" y="-298.1" font-family="Times,serif" font-size="14.00">Dim_Borrower</text>
<polyline fill="none" stroke="black" points="266.39,-289.9 397.08,-289.9"/>
<text xml:space="preserve" text-anchor="middle" x="331.74" y="-273.3" font-family="Times,serif" font-size="14.00">Borrower_Key (PK)</text>
<polyline fill="none" stroke="black" points="266.39,-265.1 397.08,-265.1"/>
<text xml:space="preserve" text-anchor="middle" x="331.74" y="-248.5" font-family="Times,serif" font-size="14.00">Gender_Group</text>
<polyline fill="none" stroke="black" points="266.39,-240.3 397.08,-240.3"/>
<text xml:space="preserve" text-anchor="middle" x="331.74" y="-223.7" font-family="Times,serif" font-size="14.00">Activity</text>
<polyline fill="none" stroke="black" points="266.39,-215.5 397.08,-215.5"/>
<text xml:space="preserve" text-anchor="middle" x="331.74" y="-198.9" font-family="Times,serif" font-size="14.00">Sector</text>
</g>
<!-- Dim_Borrower&#45;&gt;Fact_Borrower_Demographics -->
<g id="edge3" class="edge">
<title>Dim_Borrower&#45;&gt;Fact_Borrower_Demographics</title>
<path fill="none" stroke="black" d="M327.47,-190.49C323.25,-166.1 315.16,-138.96 299.74,-118.2 296.29,-113.56 292.43,-109.19 288.25,-105.08"/>
<polygon fill="black" stroke="black" points="290.75,-102.63 280.99,-98.51 286.05,-107.81 290.75,-102.63"/>
<text xml:space="preserve" text-anchor="middle" x="366.82" y="-122.4" font-family="Times,serif" font-size="14.00">Borrower_Key (FK)</text>
</g>
</g>
</svg>
